IKResults
version=1
nRows=9
nColumns=42
inDegrees=yes

"Units are S.I. units (second, meters, Newtons, ...)"
"If the header above contains a line with 'inDegrees', this indicates whether rotational values are in degrees (yes) or radians (no)."

endheader
time	pelvis_tilt	pelvis_list	pelvis_rotation	pelvis_tx	pelvis_ty	pelvis_tz	hip_flexion_r	hip_adduction_r	hip_rotation_r	knee_angle_r	knee_adduction_r	knee_angle_r_beta	ankle_angle_r	subtalar_angle_r	mtp_angle_r	hip_flexion_l	hip_adduction_l	hip_rotation_l	knee_angle_l	knee_adduction_l	knee_angle_l_beta	ankle_angle_l	subtalar_angle_l	mtp_angle_l	lumbar_extension	lumbar_bending	lumbar_rotation	arm_flex_r	arm_add_r	arm_rot_r	elbow_flex_r	pro_sup_r	wrist_flex_r	wrist_dev_r	arm_flex_l	arm_add_l	arm_rot_l	elbow_flex_l	pro_sup_l	wrist_flex_l	wrist_dev_l
0	-7.23243957	1.96595766	4.86139148	1.06819033	0.94388758	0.4332615	22.41088442	-8.81624951	4.43552034	67.60858971	2.2228717	1.17999249	-1.05242478	-25.69697446	6.54615308	22.03885591	1.56756804	-3.00259836	22.39167704	5.38393913	0.39080849	7.81058485	-15.84864318	-1.3181068	-4.61714221	-1.9691182	0.65990162	16.76096419	-15.53695772	-13.7655944	109.0455671	90.00000001	0	0	-4.55582846	-13.16519034	10.30519279	29.46315142	90.00000001	0	0
0.01	-7.02272308	1.99216728	4.88066785	1.06687688	0.94498107	0.43224026	24.05911447	-8.79050673	4.80660512	69.64018933	2.2228717	1.2154506	-0.38788476	-24.8889012	5.89001657	21.11845502	1.61490982	-3.01532469	21.98362117	5.38393913	0.38368657	8.09700363	-15.56476357	-1.42779538	-4.95316781	-1.89665134	0.37266632	14.87644418	-15.0909433	-14.01574815	106.8947931	90.00000001	0	0	-2.8391912	-13.50166947	10.06611576	30.43715091	90.00000001	0	0
0.02	-6.92677591	2.13647701	4.88892375	1.06567379	0.94581893	0.43129562	25.84531185	-8.93337852	5.22275219	71.40397659	2.2228717	1.24623449	0.22896445	-23.65563427	5.14133441	20.28120431	1.78723434	-3.08985958	21.52948377	5.38393913	0.37576038	8.35484103	-15.26151081	-1.48622813	-5.14109663	-1.96987479	0.13337762	12.9900058	-14.7240765	-14.07592208	104.4853257	90.00000001	0	0	-1.11332341	-13.87820827	9.80355171	31.50319929	90.00000001	0	0
0.03	-6.74130577	2.14401772	4.94711075	1.06445846	0.94687034	0.43032545	27.43626856	-8.94840883	5.48895556	72.63973755	2.2228717	1.26780259	0.04753713	-23.23164567	4.89193296	19.34623501	1.82780477	-3.06331402	21.03271307	5.38393913	0.36709009	8.60972767	-15.02382403	-1.56853054	-5.41551464	-1.86786595	-0.14667555	11.26944219	-14.25671491	-14.31102458	101.6463684	90.00000001	0	0	0.70587366	-14.18448918	9.5868629	32.44109934	90.00000001	0	0
0.04	-6.51703598	2.37994275	4.8005149	1.06344805	0.94793597	0.4293626	28.98047613	-9.19669648	5.96258924	73.59369435	2.2228717	1.28445228	0.03354324	-22.63265278	4.49698568	18.25794728	2.06313346	-3.28079484	20.41679589	5.38393913	0.35634031	8.8228321	-14.74012322	-1.5871837	-5.73329306	-1.99949132	-0.30868927	9.68136895	-13.79339131	-14.3891891	98.49176352	90.00000001	0	0	2.47673306	-14.48930755	9.32612442	33.44230581	90.00000001	0	0
0.05	-6.3611211	2.46405676	4.79966272	1.06227203	0.94882058	0.42860068	30.48246578	-9.33252934	6.22718566	74.12980835	2.2228717	1.29380923	0.01452636	-22.2435614	4.11139938	17.33152261	2.14377683	-3.39178298	19.91485125	5.38393913	0.34757972	9.10492154	-14.31099531	-1.58511819	-5.97863966	-1.99891363	-0.58239244	8.26079191	-13.31734216	-14.51011068	94.99930829	90.00000001	0	0	4.24481997	-14.83573803	8.97188342	34.59013109	90.00000001	0	0
0.06	-6.16610674	2.47220769	4.82237852	1.06121636	0.949799	0.42782896	31.82261687	-9.42336702	6.39279361	74.24421033	2.2228717	1.29580592	0.13351431	-22.06117598	3.94955642	16.3448758	2.15184633	-3.44840167	19.36561621	5.38393913	0.33799376	9.34602894	-13.98334143	-1.63416569	-6.24260113	-1.89053816	-0.79417239	6.92973778	-12.80885625	-14.81088474	91.2367931	90.00000001	0	0	6.08661194	-15.11118121	8.73956383	35.62468282	90.00000001	0	0
0.07	-6.06276647	2.54174148	4.77330436	1.06029825	0.95055556	0.42737221	33.21277752	-9.53971556	6.6317758	74.04687331	2.2228717	1.29236174	0.23465417	-21.96817703	3.77999165	15.38357518	2.19241812	-3.59648248	18.721815	5.38393913	0.32675731	9.60998089	-13.58405572	-1.72172645	-6.38929638	-1.88249274	-0.89575511	5.66533851	-12.30813254	-15.08017686	87.27658641	90.00000001	0	0	7.89771388	-15.37323681	8.58279329	36.70368952	90.00000001	0	0
0.08	-5.92657803	2.54857899	4.77396178	1.05922349	0.95139396	0.42617017	34.44035095	-9.76747605	6.70191621	73.43034711	2.2228717	1.28160133	0.55040965	-21.8455028	3.64901139	14.43481354	2.26087833	-3.52119779	18.11822975	5.38393913	0.31622276	9.85013895	-13.30308293	-1.78927403	-6.62545258	-1.69985672	-0.9652285	4.55691181	-12.09230665	-15.45564719	83.3020669	90.00000001	0	0	9.71180665	-15.50309189	8.39689518	37.96688601	90.00000001	0	0
